<mxfile host="app.diagrams.net" modified="2023-12-09T00:41:01.297Z" agent="Mozilla/5.0 (Windows NT 10.0; Win64; x64) AppleWebKit/537.36 (KHTML, like Gecko) Chrome/118.0.0.0 Safari/537.36 OPR/104.0.0.0" etag="VDuqEDpBWT6lR03nCiPs" version="22.1.7" type="github">
  <diagram id="C5RBs43oDa-KdzZeNtuy" name="Page-1">
    <mxGraphModel dx="839" dy="477" grid="1" gridSize="10" guides="1" tooltips="1" connect="1" arrows="1" fold="1" page="1" pageScale="1" pageWidth="827" pageHeight="1169" math="0" shadow="0">
      <root>
        <mxCell id="WIyWlLk6GJQsqaUBKTNV-0" />
        <mxCell id="WIyWlLk6GJQsqaUBKTNV-1" parent="WIyWlLk6GJQsqaUBKTNV-0" />
        <mxCell id="LRNALNMM1zuNrJks6vws-12" style="edgeStyle=orthogonalEdgeStyle;rounded=0;orthogonalLoop=1;jettySize=auto;html=1;entryX=0;entryY=0.5;entryDx=0;entryDy=0;" edge="1" parent="WIyWlLk6GJQsqaUBKTNV-1" source="LRNALNMM1zuNrJks6vws-0" target="LRNALNMM1zuNrJks6vws-1">
          <mxGeometry relative="1" as="geometry" />
        </mxCell>
        <mxCell id="LRNALNMM1zuNrJks6vws-0" value="INICIO" style="rounded=1;whiteSpace=wrap;html=1;" vertex="1" parent="WIyWlLk6GJQsqaUBKTNV-1">
          <mxGeometry x="130" y="160" width="190" height="60" as="geometry" />
        </mxCell>
        <mxCell id="LRNALNMM1zuNrJks6vws-13" style="edgeStyle=orthogonalEdgeStyle;rounded=0;orthogonalLoop=1;jettySize=auto;html=1;" edge="1" parent="WIyWlLk6GJQsqaUBKTNV-1" source="LRNALNMM1zuNrJks6vws-1" target="LRNALNMM1zuNrJks6vws-3">
          <mxGeometry relative="1" as="geometry" />
        </mxCell>
        <mxCell id="LRNALNMM1zuNrJks6vws-1" value="Coloco uma escada abaixo da lampada" style="rounded=1;whiteSpace=wrap;html=1;" vertex="1" parent="WIyWlLk6GJQsqaUBKTNV-1">
          <mxGeometry x="390" y="160" width="230" height="60" as="geometry" />
        </mxCell>
        <mxCell id="LRNALNMM1zuNrJks6vws-14" style="edgeStyle=orthogonalEdgeStyle;rounded=0;orthogonalLoop=1;jettySize=auto;html=1;" edge="1" parent="WIyWlLk6GJQsqaUBKTNV-1" source="LRNALNMM1zuNrJks6vws-3" target="LRNALNMM1zuNrJks6vws-5">
          <mxGeometry relative="1" as="geometry" />
        </mxCell>
        <mxCell id="LRNALNMM1zuNrJks6vws-3" value="Retiro a lampada queimada" style="rounded=1;whiteSpace=wrap;html=1;" vertex="1" parent="WIyWlLk6GJQsqaUBKTNV-1">
          <mxGeometry x="660" y="160" width="160" height="60" as="geometry" />
        </mxCell>
        <mxCell id="LRNALNMM1zuNrJks6vws-15" style="edgeStyle=orthogonalEdgeStyle;rounded=0;orthogonalLoop=1;jettySize=auto;html=1;" edge="1" parent="WIyWlLk6GJQsqaUBKTNV-1" source="LRNALNMM1zuNrJks6vws-5" target="LRNALNMM1zuNrJks6vws-6">
          <mxGeometry relative="1" as="geometry" />
        </mxCell>
        <mxCell id="LRNALNMM1zuNrJks6vws-5" value="Testo a lampada" style="rounded=1;whiteSpace=wrap;html=1;" vertex="1" parent="WIyWlLk6GJQsqaUBKTNV-1">
          <mxGeometry x="660" y="280" width="160" height="60" as="geometry" />
        </mxCell>
        <mxCell id="LRNALNMM1zuNrJks6vws-7" value="Sim" style="edgeStyle=orthogonalEdgeStyle;rounded=0;orthogonalLoop=1;jettySize=auto;html=1;" edge="1" parent="WIyWlLk6GJQsqaUBKTNV-1" source="LRNALNMM1zuNrJks6vws-6">
          <mxGeometry x="-0.0077" y="-10" relative="1" as="geometry">
            <mxPoint x="550" y="420" as="targetPoint" />
            <mxPoint y="1" as="offset" />
          </mxGeometry>
        </mxCell>
        <mxCell id="LRNALNMM1zuNrJks6vws-10" style="edgeStyle=orthogonalEdgeStyle;rounded=0;orthogonalLoop=1;jettySize=auto;html=1;" edge="1" parent="WIyWlLk6GJQsqaUBKTNV-1" source="LRNALNMM1zuNrJks6vws-6">
          <mxGeometry relative="1" as="geometry">
            <mxPoint x="400" y="310" as="targetPoint" />
          </mxGeometry>
        </mxCell>
        <mxCell id="LRNALNMM1zuNrJks6vws-16" value="NÃ£o" style="edgeLabel;html=1;align=center;verticalAlign=middle;resizable=0;points=[];" vertex="1" connectable="0" parent="LRNALNMM1zuNrJks6vws-10">
          <mxGeometry x="-0.0498" y="4" relative="1" as="geometry">
            <mxPoint as="offset" />
          </mxGeometry>
        </mxCell>
        <mxCell id="LRNALNMM1zuNrJks6vws-6" value="A lampada funciona" style="rhombus;whiteSpace=wrap;html=1;" vertex="1" parent="WIyWlLk6GJQsqaUBKTNV-1">
          <mxGeometry x="490" y="265" width="120" height="90" as="geometry" />
        </mxCell>
        <mxCell id="LRNALNMM1zuNrJks6vws-17" style="edgeStyle=orthogonalEdgeStyle;rounded=0;orthogonalLoop=1;jettySize=auto;html=1;entryX=0;entryY=0.5;entryDx=0;entryDy=0;" edge="1" parent="WIyWlLk6GJQsqaUBKTNV-1" source="LRNALNMM1zuNrJks6vws-8" target="LRNALNMM1zuNrJks6vws-9">
          <mxGeometry relative="1" as="geometry" />
        </mxCell>
        <mxCell id="LRNALNMM1zuNrJks6vws-8" value="tiro o soquete" style="rounded=1;whiteSpace=wrap;html=1;" vertex="1" parent="WIyWlLk6GJQsqaUBKTNV-1">
          <mxGeometry x="490" y="420" width="120" height="60" as="geometry" />
        </mxCell>
        <mxCell id="LRNALNMM1zuNrJks6vws-9" value="Coloco outro novo" style="rounded=1;whiteSpace=wrap;html=1;" vertex="1" parent="WIyWlLk6GJQsqaUBKTNV-1">
          <mxGeometry x="680" y="420" width="120" height="60" as="geometry" />
        </mxCell>
        <mxCell id="LRNALNMM1zuNrJks6vws-11" value="Coloco outra lampada&amp;nbsp;" style="rounded=1;whiteSpace=wrap;html=1;" vertex="1" parent="WIyWlLk6GJQsqaUBKTNV-1">
          <mxGeometry x="280" y="280" width="120" height="60" as="geometry" />
        </mxCell>
      </root>
    </mxGraphModel>
  </diagram>
</mxfile>
